<svg xmlns="http://www.w3.org/2000/svg" viewBox="0 0 1200 800" width="1200" height="800" role="img" aria-label="Lomba Kompetensi">
  <defs>
    <linearGradient id="bg" x1="0" y1="0" x2="1" y2="1">
      <stop offset="0%" stop-color="#a16207"/>
      <stop offset="100%" stop-color="#facc15"/>
    </linearGradient>
    <pattern id="grid" width="60" height="60" patternUnits="userSpaceOnUse">
      <path d="M60 0H0V60" fill="none" stroke="#ffffff" stroke-opacity=".08" stroke-width="1.5"/>
    </pattern>
  </defs>

  <rect width="1200" height="800" fill="url(#bg)"/>
  <rect width="1200" height="800" fill="url(#grid)"/>

  <circle cx="1010" cy="150" r="230" fill="#ffffff" fill-opacity=".07"/>
  <circle cx="180" cy="690" r="180" fill="#ffffff" fill-opacity=".06"/>

  <g transform="translate(600 400) scale(13) translate(-12 -12)">
    <path d="M6 4h12v3a6 6 0 0 1-12 0zM4 5h2v2a3 3 0 0 1-2-2zm14 0h2a3 3 0 0 1-2 2zM10 14h4v3h3v2H7v-2h3z" fill="#ffffff" fill-opacity=".92"/>
  </g>

</svg>
